HIERARCHY
ROOT Hips
{
    OFFSET 0.000000 0.000000 0.000000
    CHANNELS 6 Xposition Yposition Zposition Zrotation Xrotation Yrotation
    JOINT Spine
    {
        OFFSET -0.000000 6.925600 0.000000
        CHANNELS 3 Zrotation Xrotation Yrotation
        JOINT Spine1
        {
            OFFSET -0.000000 16.343796 0.000000
            CHANNELS 3 Zrotation Xrotation Yrotation
            JOINT Neck
            {
                OFFSET -0.000000 18.032967 0.000000
                CHANNELS 3 Zrotation Xrotation Yrotation
                JOINT Head
                {
                    OFFSET -0.000000 13.091072 1.689171
                    CHANNELS 3 Zrotation Xrotation Yrotation
                    End Site
                    {
                        OFFSET -0.000000 16.891708 0.000000
                    }
                }
            }
            JOINT LeftShoulder
            {
                OFFSET 3.336773 14.146137 -0.012206
                CHANNELS 3 Zrotation Xrotation Yrotation
                JOINT LeftArm
                {
                    OFFSET 11.765518 0.000000 0.000000
                    CHANNELS 3 Zrotation Xrotation Yrotation
                    JOINT LeftForeArm
                    {
                        OFFSET 25.163450 0.000000 0.000000
                        CHANNELS 3 Zrotation Xrotation Yrotation
                        JOINT LeftHand
                        {
                            OFFSET 21.783554 0.000000 0.000000
                            CHANNELS 3 Zrotation Xrotation Yrotation
                            End Site
                            {
                                OFFSET 12.668781 0.000000 0.000000
                            }
                        }
                    }
                }
            }
            JOINT RightShoulder
            {
                OFFSET -3.409204 14.146137 -0.012206
                CHANNELS 3 Zrotation Xrotation Yrotation
                JOINT RightArm
                {
                    OFFSET -11.765518 0.000000 0.000000
                    CHANNELS 3 Zrotation Xrotation Yrotation
                    JOINT RightForeArm
                    {
                        OFFSET -25.163450 0.000000 0.000000
                        CHANNELS 3 Zrotation Xrotation Yrotation
                        JOINT RightHand
                        {
                            OFFSET -21.783554 0.000000 0.000000
                            CHANNELS 3 Zrotation Xrotation Yrotation
                            End Site
                            {
                                OFFSET -12.668781 0.000000 0.000000
                            }
                        }
                    }
                }
            }
        }
    }
    JOINT LeftUpLeg
    {
        OFFSET 8.445854 0.000000 0.000000
        CHANNELS 3 Zrotation Xrotation Yrotation
        JOINT LeftLeg
        {
            OFFSET -0.000000 -40.674755 0.000000
            CHANNELS 3 Zrotation Xrotation Yrotation
            JOINT LeftFoot
            {
                OFFSET -0.000000 -37.111794 0.000000
                CHANNELS 3 Zrotation Xrotation Yrotation
                JOINT LeftToeBase
                {
                    OFFSET -0.000000 -5.489805 12.668781
                    CHANNELS 3 Zrotation Xrotation Yrotation
                    End Site
                    {
                        OFFSET -0.000000 0.000000 3.378341
                    }
                }
            }
        }
    }
    JOINT RightUpLeg
    {
        OFFSET -8.445854 0.000000 0.000000
        CHANNELS 3 Zrotation Xrotation Yrotation
        JOINT RightLeg
        {
            OFFSET -0.000000 -40.674755 0.000000
            CHANNELS 3 Zrotation Xrotation Yrotation
            JOINT RightFoot
            {
                OFFSET -0.000000 -37.111794 0.000000
                CHANNELS 3 Zrotation Xrotation Yrotation
                JOINT RightToeBase
                {
                    OFFSET -0.000000 -5.489805 12.668781
                    CHANNELS 3 Zrotation Xrotation Yrotation
                    End Site
                    {
                        OFFSET -0.000000 0.000000 3.378341
                    }
                }
            }
        }
    }
}
MOTION
Frames:    4
Frame Time:    0.008333
34.859501    83.039688    102.634666    3.876137    -6.902623    -138.159531    7.045193    20.635172    -10.209443    -7.810197    19.392118    -1.642965    8.717690    22.362026    -8.483687    13.990534    -37.341846    -2.820750    3.017519    12.850320    10.306983    -48.883312    38.422382    -31.631559    10.351515    -10.607327    -49.876099    26.237022    -7.780248    -8.417001    -9.282776    -3.255552    1.395506    13.857920    43.824486    74.172470    -38.523731    7.164772    56.612789    -58.744347    17.259655    20.127605    7.524730    -19.715090    -33.588375    -3.093397    5.406854    47.081326    -8.195224    4.698402    14.517704    1.186981    3.118507    2.992599    3.406594    -5.897617    0.413675    -2.359414    -7.683298    4.720792    0.584207    -0.535984    1.128672    -2.443557    2.967124    2.057358    
34.849030    83.039818    102.640602    3.880576    -6.896417    -138.144745    7.038717    20.586100    -10.213403    -7.767687    19.441568    -1.649606    8.656660    22.210882    -8.473681    14.004143    -37.276310    -2.848628    2.954079    12.756255    10.347354    -48.835155    38.469189    -31.625656    10.320875    -10.591260    -49.849052    26.244232    -7.787637    -8.441957    -9.234385    -3.250585    1.379174    13.849360    43.847263    74.023552    -37.815311    6.835381    56.239128    -57.358749    16.259293    20.871792    7.451198    -19.833670    -33.613827    -3.151865    5.704677    45.962132    -8.359184    4.378983    15.607379    1.214919    3.169503    3.014638    3.401639    -5.891201    0.415192    -2.359701    -7.686619    4.690238    0.601857    -0.521270    1.143955    -2.427436    2.941667    2.054852    
34.833855    83.041779    102.645576    3.882374    -6.892056    -138.135788    7.049734    20.545073    -10.210131    -7.751978    19.429863    -1.652346    8.611432    22.105682    -8.467987    14.008958    -37.192757    -2.876757    2.933053    12.716027    10.333461    -48.846416    38.501400    -31.589094    10.303493    -10.593055    -49.815956    26.190220    -7.799170    -8.451500    -9.185122    -3.199158    1.354565    13.813390    43.783783    74.121025    -36.639057    6.718643    55.934895    -58.159981    14.834702    21.404539    7.513215    -19.721312    -33.471497    -3.101702    5.431731    46.945126    -8.168470    4.663831    14.506796    1.202316    3.164067    3.037169    3.396885    -5.877966    0.414778    -2.368714    -7.696041    4.673084    0.596921    -0.539464    1.155093    -2.432003    2.959882    2.036918    
34.819790    83.044525    102.650024    3.887375    -6.889949    -138.123291    7.061441    20.498096    -10.211515    -7.738086    19.405251    -1.657279    8.546828    22.016289    -8.462816    14.063353    -37.126858    -2.897001    2.901741    12.672416    10.332870    -48.838478    38.517345    -31.558319    10.243711    -10.564834    -49.773388    26.182823    -7.803521    -8.455751    -9.137063    -3.163207    1.349098    13.817987    43.797878    74.014038    -37.747250    6.912992    56.160812    -57.308369    16.245819    20.918806    7.436135    -19.833597    -33.503353    -3.149431    5.717722    45.802963    -8.349135    4.350348    15.621437    1.209297    3.177245    3.043463    3.393004    -5.867535    0.413277    -2.378076    -7.704917    4.660471    0.647608    -0.568703    1.137357    -2.440533    2.972615    2.039500    
